<svg fill="none" height="21" viewBox="0 0 28 21" width="28" xmlns="http://www.w3.org/2000/svg"><path clip-rule="evenodd" d="m7.49803 1.98822c-.11302.11026-.2344.23111-.39649.39416 0 0-2.67032 2.67212-2.67924 2.67983-.08285.07859-.15179.14579-.22325.21683-.03284.03284-.06206.06172-.12435.12299-.05356.05268-.07836.07715-.10922.10785l-2.41441 2.41713c-.05182.05376-.09628.09902-.15345.15645l-.06509.06544c-.07372.07385-.13204.13395-.21447.21992-.189075.18657-.3808.39756-.561333.61883-.167744.17886-.303167.38561-.400125.61106l-.025618.0682c-.1746454.54069-.1746454 1.12259 0 1.66329l.026745.0708c.097693.2249.233837.4309.402216.6088.179771.2209.371357.4319.573915.6322.04262.0459.10541.11.18928.1939.05792.0579.08285.0829.11389.1142.04012.0405.07479.0759.10698.1092l2.42077 2.4253c.11994.1199.17363.1732.26969.2669.07896.078.12569.1235.21222.2033l2.65724 2.6611c.19917.1992.28852.2881.40114.3988.14639.1464.24289.2411.39362.3884.05679.0599.07807.0819.10718.1091.34019.3418.75513.6439 1.20948.8757.45481.2291.93705.3882 1.43465.4742.4663.0768.9316.1178 1.398.1236.1978.0044.3963.0071.5923.0079h.4669 8.6866c.1803 0 .359-.0026.6068-.008.4637-.0057.9336-.0469 1.3985-.1232.5076-.0877.9931-.2483 1.4471-.4777.4602-.2327.88-.537 1.2441-.9017.3625-.3639.6656-.7813.8991-1.2378.2312-.4601.3912-.9466.4773-1.4486.077-.4706.1179-.9402.1235-1.4109.0036-.1156.0052-.2174.0079-.4441l.0018-.1451.0001-.7152v-7.91866l-.0014-.12527c-.0015-.1397-.0022-.20071-.0036-.27901-.0012-.07341-.0027-.14077-.0047-.20565-.0052-.45254-.0458-.91798-.121-1.37842-.0866-.50403-.2453-.98638-.4718-1.43774-.2347-.45859-.5357-.87286-.8952-1.23335-.3596-.36214-.7762-.665143-1.2329-.896365-.4507-.227942-.9324-.387546-1.4298-.473713-.4684-.0761915-.9338-.1168374-1.4003-.1229456-.2111-.00511473-.406-.00784339-.5934-.00784339-.1891-.00194003-.3456-.00233301-.6968-.00233301h-7.8113c-.3486 0-.5061.00039537-.7038.00237189-.1792-.00003888-.3734.00267237-.5962.00795641-.4576.0060082-.9222.0466615-1.3819.1214757-.5056.087628-.98773.247058-1.43872.474449-.45775.233202-.87291.535687-1.23287.897637-.01668.01641-.02889.02925-.1308.13804-.12643.11988-.2427.23311-.35548.34629zm-3.0228 3.02972.00273-.00214c-.00341.00257-.00581.00438-.00878.00684zm3.72936 12.49856-2.68567-2.6896s-.05358-.0487-.05915-.0534c-.04144-.0396-.07708-.0745-.16612-.1625-.06427-.0623-.11428-.1119-.22812-.2258l-2.41107-2.4153c-.02828-.0295-.06766-.0697-.11234-.1147-.03319-.0335-.06-.0604-.11872-.1191-.07384-.0739-.12685-.128-.17627-.1805-.18879-.1873-.34862-.3641-.49813-.5495l-.05124-.0574c-.03956-.0402-.07269-.0862-.09828-.1363-.05838-.2057-.05823-.4237.00045-.6294.02562-.051.05893-.0978.09881-.1388l.04711-.05308c.15034-.18578.31085-.36309.48079-.53112.09105-.09456.14368-.1488.18348-.18914l.05298-.05279.03723-.03731c.06326-.06354.11385-.11505.16242-.16564l2.40192-2.40442c.02636-.02622.0487-.04825.11182-.11034.05457-.05368.08616-.08491.12117-.11992.05418-.05385.10746-.10593.1598-.15611.01149-.0096.02488-.02202.063-.05736l2.68332-2.68682c.1584-.15933.27489-.27531.38891-.38666.10965-.10993.21548-.213.3274-.31914.02481-.02316.03963-.03866.10813-.11134.03565-.03781.05297-.05604.05416-.0572.24905-.25038.53029-.45529.8384-.61227.31112-.15686.64692-.26788.99342-.32797.3759-.06114.7639-.09508 1.1528-.10023.2195-.00516.4019-.0077.5753-.0077.1985-.00195.3525-.00234.696-.00234h7.8113c.346 0 .499.00039.689.0023.1815.00004.3643.00259.5724.00759.3981.00526.7869.03921 1.1716.10174.3374.05852.6721.16939.985.32764.308.15593.5892.36046.8327.60563.2465.24723.452.53007.6103.83945.1551.30901.2656.64505.3252.9918.0617.37725.0955.76498.1001 1.1536.002.07184.0034.13277.0045.20002.0013.07383.002.13265.0035.269l.0013.11787-.0001.68785v7.91951l-.0018.1439c-.0025.2175-.0041.3132-.0076.4302-.0049.4066-.0391.7985-.1025 1.1861-.0591.3447-.1709.6845-.3306 1.0024-.1575.3078-.3652.5938-.6131.8428-.2468.2471-.532.4539-.8445.6119-.3161.1597-.6545.2717-1.0039.332-.3814.0626-.7735.097-1.1665.1019-.2448.0053-.4135.0077-.5803.0077h-9.1505c-.1833-.0007-.3724-.0033-.5684-.0076-.3957-.005-.783-.0391-1.1662-.1022-.3404-.0588-.6761-.1696-.99013-.3278-.30491-.1556-.58678-.3608-.83147-.6061-.01464-.0144-.03495-.0354-.06065-.0625l-.00325-.0034-.00035-.0004-.00025-.0003-.00028-.0003c-.06043-.0637-.07417-.0782-.08858-.092l-.01748-.0164c-.08891-.0834-.17579-.1687-.31634-.3092-.11314-.1112-.20032-.198-.39583-.3935zm5.57701-2.9041c-.0631.0625-.1387.1135-.224.1489-.2607.1079-.5607.0482-.7602-.1513-.1313-.1309-.2051-.3086-.2051-.494s.0738-.3631.2051-.494v.0016c.0375-.0376.0786-.0702.1223-.0976l3.0273-3.031-3.1496-3.14601.0101-.01012c-.0627-.06315-.1138-.13883-.1492-.22426-.1079-.26067-.0482-.56071.1513-.76021.1309-.13176.309-.20585.4948-.20585.1857 0 .3638.07409.4948.20585h-.0032c.0339.03388.0638.07065.0894.10964l3.0467 3.04466 3.0564-3.06015c.0234-.03377.0502-.06593.0803-.09603.1995-.19952.4995-.25921.7602-.15124s.4306.36233.4306.64448c0 .18762-.0751.36296-.2022.49114l.0078.00776-3.1463 3.15024 3.0442 3.0423c.0377.0252.0731.0541.1057.0867l-.0016.0015c.1995.1995.2592.4996.1512.7602-.1079.2607-.3623.4307-.6444.4307-.1877 0-.363-.0752-.4912-.2022l-.006.0061-3.1428-3.1393-3.14 3.1439z" fill="#5e6167" fill-rule="evenodd"/></svg>